<svg xmlns="http://www.w3.org/2000/svg" viewBox="0 0 90 90">
    <defs><style>.cls-1{fill:#2d476a;}.cls-2{fill:#fff;}</style></defs>
    <circle class="cls-1" cx="45" cy="45" r="45"/>
    <path class="cls-2" d="M17.41,39.33a4.93,4.93,0,0,1,3.88,1.9l2.58-2a8.19,8.19,0,1,0,0,10.06l-2.58-2a4.92,4.92,0,1,1-3.88-7.94ZM57.77,37.7A8.19,8.19,0,1,0,61,44.26h0V29.51H57.77ZM52.85,49.17a4.92,4.92,0,1,1,4.92-4.92A4.92,4.92,0,0,1,52.85,49.17ZM39.17,44.26h0a4.92,4.92,0,0,1-9.83,0V36.56H26.06v7.7h0a8.19,8.19,0,0,0,16.38,0h0v-7.7H39.17Zm37.57-7.7v7.7h0a4.92,4.92,0,1,1-9.83,0V36.56H63.64v7.7h0a8.19,8.19,0,0,0,11.84,7.32,10.16,10.16,0,0,1-3.65,3.77V59A13.36,13.36,0,0,0,80,46.79h0V36.56Z"/>
</svg>